<svg width="500" height="512" viewBox="0 0 500 512" fill="none" xmlns="http://www.w3.org/2000/svg">
<path d="M228.964 32C241.816 32 254.668 32.0003 268.067 32.3516C271.742 33.0515 274.919 33.1587 277.989 33.791C290.128 36.2919 302.357 38.491 314.322 41.6719C331.808 46.3209 347.856 54.4749 363.366 63.6768C378.279 72.5254 391.525 83.5965 403.882 95.6074C411.028 102.553 417.197 110.565 423.376 118.434C437.055 135.852 447.194 155.283 454.673 176.073C459.887 190.567 463.835 205.415 465.226 220.831C466.112 230.653 467.353 240.472 467.615 250.313C467.804 257.432 466.851 264.61 466.037 271.719C465.052 280.326 464.29 289.03 462.351 297.443C457.212 319.738 449.071 340.909 437.304 360.65C429.119 374.383 419.872 387.278 408.656 398.674C402.538 404.889 396.533 411.368 389.644 416.638C378.212 425.382 366.527 433.954 354.173 441.293C340.412 449.467 325.424 455.305 309.957 459.699C295.333 463.854 280.437 466.721 265.285 467.63C254.837 468.256 244.311 468.023 233.839 467.649C227.453 467.422 221.1 466.219 214.736 465.421C207.114 464.466 199.519 463.081 191.868 462.627C186.001 462.278 179.997 462.622 174.175 463.482C165.397 464.779 156.637 466.442 148.034 468.607C139.893 470.657 132.016 473.734 123.926 476.019C118.188 477.639 112.291 478.693 106.464 480C97.1125 480 87.7609 480 77.8831 479.665C75.2687 478.969 73.0412 478.954 71.1184 478.181C65.2929 475.838 59.3015 473.673 53.9671 470.457C51.7426 469.116 49.9107 465.264 49.9837 462.611C50.0341 460.78 53.4669 457.848 55.72 457.488C63.3518 456.271 69.9378 453.371 75.9143 448.533C85.2001 441.017 91.718 431.681 91.3225 419.587C90.9151 407.129 86.0153 395.747 78.3147 385.84C62.2804 365.212 49.6942 342.792 41.6761 317.826C34.0629 294.121 30.525 269.966 31.0511 245.019C31.3997 228.483 33.4256 212.305 37.3704 196.33C42.974 173.638 52.2241 152.493 64.7483 132.749C75.1284 116.386 87.448 101.657 101.87 88.7549C108.667 82.675 115.697 76.7841 123.09 71.459C137.41 61.1448 152.953 52.9204 169.401 46.5146C185.741 40.1508 202.53 35.4613 220.061 33.709C223.056 33.4096 225.998 32.583 228.964 32ZM249.303 177.073C237.463 177.073 227.866 186.671 227.866 198.511V313.136C227.866 324.975 237.463 334.573 249.303 334.573C261.143 334.573 270.74 324.975 270.741 313.136V198.511C270.741 186.671 261.143 177.073 249.303 177.073ZM335.053 194.573C323.214 194.573 313.616 204.171 313.616 216.011V295.636C313.616 307.475 323.214 317.073 335.053 317.073C346.893 317.073 356.49 307.475 356.491 295.636V216.011C356.491 204.171 346.893 194.573 335.053 194.573ZM163.553 220.823C151.713 220.823 142.116 230.421 142.116 242.261V269.386C142.116 281.225 151.713 290.823 163.553 290.823C175.393 290.823 184.99 281.225 184.991 269.386V242.261C184.991 230.421 175.393 220.823 163.553 220.823Z" fill="black"/>
</svg>
